<svg width="75" height="75" viewBox="0 0 75 75" fill="none" xmlns="http://www.w3.org/2000/svg">
<path d="M37.4057 0C14.0157 0 -4.35434 21.46 0.90566 45.77C3.64566 58.42 16.3957 71.18 29.0457 73.91C53.3457 79.17 74.8157 60.8 74.8157 37.41V0H37.4057ZM37.4057 67.03C20.7857 67.03 7.36566 53.34 7.80566 36.62C8.22566 20.52 21.6257 7.79 37.7257 7.79H67.0257V18.7H37.4157C26.9357 18.7 18.4657 27.32 18.7157 37.86C18.9557 47.85 27.1457 55.96 37.1357 56.11C44.8057 56.22 51.4257 51.72 54.4257 45.2H65.9857C62.5657 57.78 51.0657 67.02 37.4057 67.02V67.03ZM67.0357 37.41H56.1157V26.49H67.0357V37.41Z" fill="white"/>
</svg>
