<svg width="18" height="19" viewBox="0 0 18 19" fill="none" xmlns="http://www.w3.org/2000/svg">
<path d="M17.3071 13.7459C16.8156 12.8993 16.085 10.5038 16.085 7.37508C16.085 5.49614 15.3386 3.69416 14.01 2.36555C12.6814 1.03693 10.8794 0.290527 9.00044 0.290527C7.1215 0.290527 5.31952 1.03693 3.9909 2.36555C2.66229 3.69416 1.91589 5.49614 1.91589 7.37508C1.91589 10.5047 1.1844 12.8993 0.692913 13.7459C0.567402 13.9611 0.500864 14.2056 0.500008 14.4548C0.499153 14.7039 0.564011 14.9489 0.688042 15.165C0.812072 15.3811 0.990889 15.5606 1.20646 15.6856C1.42203 15.8105 1.66673 15.8764 1.91589 15.8766H5.52989C5.69335 16.6764 6.12803 17.3952 6.76042 17.9114C7.39282 18.4276 8.1841 18.7096 9.00044 18.7096C9.81678 18.7096 10.6081 18.4276 11.2405 17.9114C11.8729 17.3952 12.3075 16.6764 12.471 15.8766H16.085C16.3341 15.8762 16.5787 15.8102 16.7941 15.6852C17.0096 15.5602 17.1883 15.3807 17.3122 15.1646C17.4361 14.9485 17.5009 14.7036 17.5 14.4546C17.4991 14.2055 17.4326 13.961 17.3071 13.7459ZM9.00044 17.2935C8.56104 17.2933 8.13248 17.157 7.77375 16.9033C7.41502 16.6495 7.14375 16.2908 6.99728 15.8766H11.0036C10.8571 16.2908 10.5859 16.6495 10.2271 16.9033C9.8684 17.157 9.43984 17.2933 9.00044 17.2935Z" fill="#212224"/>
</svg>
