<svg width="54" height="47" viewBox="0 0 54 47" fill="none" xmlns="http://www.w3.org/2000/svg">
<path d="M53.8024 17.3522L34.9704 29.911L17.0234 28.2017L1.21289 17.7326L26.0211 4.21362C26.9332 3.71661 28.0337 3.70998 28.9517 4.19597L53.8024 17.3522Z" fill="#28C86F" fill-opacity="0.3" stroke="#03BD54" stroke-width="0.170923"/>
<path fill-rule="evenodd" clip-rule="evenodd" d="M5.7002 13.906L48.7379 10.682L49.4402 20.0565C47.5575 20.1976 46.1456 21.8381 46.2866 23.7208C46.4276 25.6035 48.0682 27.0154 49.9509 26.8744L50.6851 36.6751L7.64739 39.8991L6.91321 30.0985C8.79589 29.9575 10.2078 28.3169 10.0667 26.4342C9.92571 24.5515 8.28516 23.1396 6.40247 23.2807L5.7002 13.906Z" fill="#02150C"/>
<path fill-rule="evenodd" clip-rule="evenodd" d="M2.3457 14.1838L44.6628 5.70425L46.5099 14.922C44.6588 15.2931 43.459 17.0944 43.8299 18.9455C44.2008 20.7966 46.0021 21.9965 47.8532 21.6257L49.7841 31.2621L7.46704 39.7417L5.53605 30.1052C5.53613 30.1052 5.5362 30.1051 5.53628 30.1051C7.38745 29.7342 8.58742 27.9328 8.21648 26.0816C7.84554 24.2305 6.04415 23.0305 4.19298 23.4014C4.1929 23.4014 4.19283 23.4015 4.19275 23.4015L2.3457 14.1838Z" fill="#22292D"/>
<path d="M21.6049 15.9909L22.0516 18.22L21.6883 18.2928L21.5013 17.36L21.066 17.4472L21.007 17.1526L21.4423 17.0654L21.2416 16.0637L21.6049 15.9909ZM20.934 16.4658L20.9924 16.7572L19.2576 17.1048L19.1992 16.8135L19.8866 16.6757L19.8203 16.3451L20.1804 16.273L20.2466 16.6036L20.934 16.4658ZM20.1493 17.0521C20.5551 16.9708 20.8963 17.1441 20.9665 17.4774C21.0295 17.8086 20.7808 18.0968 20.3749 18.1781C19.9657 18.2601 19.6285 18.0893 19.5622 17.7587C19.4953 17.4249 19.7401 17.1341 20.1493 17.0521ZM20.2057 17.3336C19.9962 17.3756 19.8744 17.5157 19.9092 17.6892C19.9446 17.866 20.1096 17.9419 20.3185 17.8966C20.5253 17.8586 20.6517 17.7243 20.6162 17.5475C20.5815 17.3741 20.4119 17.2923 20.2057 17.3336ZM22.1918 18.5801L22.2509 18.8747L20.2345 19.2787L20.062 18.4178L20.4319 18.3437L20.5454 18.91L22.1918 18.5801ZM24.74 16.9732L24.7977 17.2612L22.7225 17.677L22.4004 16.0699L24.4495 15.6593L24.5085 15.9539L22.8293 16.2903L22.9008 16.6471L24.5113 16.3244L24.5683 16.6092L22.9579 16.9319L23.0346 17.3149L24.74 16.9732ZM25.1881 17.663L25.2478 17.9609L22.544 18.5027L22.4843 18.2048L25.1881 17.663ZM27.2376 14.8589L27.4737 16.0372L27.9287 15.9461L27.989 16.2472L27.534 16.3384L27.8305 17.8179L27.4704 17.89L26.8775 14.931L27.2376 14.8589ZM26.7396 15.4319L26.7979 15.7232L25.0533 16.0728L24.9949 15.7815L25.6954 15.6411L25.6127 15.2287L25.9761 15.1559L26.0587 15.5683L26.7396 15.4319ZM25.9758 16.0889C26.4013 16.0036 26.7765 16.228 26.8585 16.6372C26.9405 17.0463 26.68 17.3947 26.2545 17.48C25.8224 17.5666 25.4479 17.3454 25.3692 16.9356C25.2839 16.5271 25.5437 16.1754 25.9758 16.0889ZM26.0354 16.3867C25.803 16.4333 25.6676 16.6239 25.7161 16.8661C25.7647 17.1083 25.9624 17.2287 26.1942 17.1789C26.4207 17.1369 26.5568 16.9496 26.5115 16.7067C26.4597 16.4651 26.2613 16.3415 26.0354 16.3867ZM30.2871 14.5304L30.3441 14.8152C30.4143 15.1824 30.4969 15.5949 30.5064 16.2365L30.1319 16.2706C30.131 15.6716 30.0467 15.251 29.9788 14.8952L28.2113 15.2494L28.1529 14.958L30.2871 14.5304ZM30.9706 16.4805L31.0303 16.7784L28.3331 17.3188L28.2734 17.021L29.2685 16.8216L29.0626 15.7938L29.4226 15.7216L29.6286 16.7494L30.9706 16.4805Z" fill="#28C86F"/>
<path d="M16.2085 21.9055L16.4033 22.8777L17.0072 22.7566L17.1076 23.2575L16.5037 23.3785L16.6935 24.3261L16.0651 24.452L15.58 22.0314L16.2085 21.9055ZM16.7299 24.5077L16.9562 25.637L14.6142 26.1063L14.6654 26.3616L17.135 25.8668L17.2275 26.3283L14.1441 26.9462L13.9149 25.8021L16.2471 25.3348L16.1969 25.0844L13.8549 25.5537L13.7644 25.102L16.7299 24.5077ZM15.3838 22.4282L15.4792 22.9045L12.8278 23.4358L12.7324 22.9595L13.7488 22.7559L13.676 22.3925L14.2995 22.2676L14.3723 22.6309L15.3838 22.4282ZM14.1752 23.2782C14.8429 23.1444 15.332 23.3426 15.4216 23.7894C15.5131 24.246 15.1361 24.6075 14.4684 24.7413C13.8006 24.8751 13.3036 24.6887 13.2121 24.2321C13.1226 23.7853 13.5074 23.412 14.1752 23.2782ZM14.2637 23.7201C13.9544 23.782 13.7836 23.9235 13.8259 24.1091C13.8593 24.3016 14.0695 24.3565 14.3788 24.2945C14.6881 24.2325 14.8659 24.0999 14.8275 23.9084C14.7901 23.7218 14.573 23.6581 14.2637 23.7201ZM20.7531 21.0102L21.3966 24.2212L20.7681 24.3472L20.1246 21.1361L20.7531 21.0102ZM21.6492 24.8703L21.7495 25.3711L18.6367 25.9949L18.3366 24.4973L18.97 24.3704L19.1697 25.3671L21.6492 24.8703ZM18.3601 21.7859C19.0475 21.6481 19.6771 22.0122 19.808 22.6653C19.9418 23.333 19.5001 23.9067 18.8127 24.0444C18.1253 24.1822 17.4967 23.823 17.3629 23.1552C17.232 22.5022 17.6727 21.9236 18.3601 21.7859ZM18.4693 22.3309C18.1198 22.3958 17.8989 22.6699 17.9766 23.0322C18.0465 23.4064 18.3549 23.5693 18.7035 23.4994C19.0423 23.4315 19.2641 23.1624 19.1894 22.7892C19.1165 22.4259 18.8071 22.2581 18.4693 22.3309ZM25.0297 20.4086L25.1104 20.8112C25.1985 21.2761 25.3018 21.7917 25.2996 22.5454L25.9035 22.4244L26.0049 22.9301L24.2815 23.2754L24.6012 24.8712L23.9728 24.9971L23.653 23.4014L21.9296 23.7467L21.8283 23.241L24.6859 22.6684C24.6922 22.4194 24.6852 22.1936 24.667 21.9878L22.1296 22.6291L21.9487 22.1086L24.6147 21.4978C24.5862 21.3299 24.5576 21.1747 24.5301 21.0245L21.9819 21.5351L21.8825 21.0392L25.0297 20.4086ZM29.4457 19.4317L29.547 19.9375L28.9627 20.0545L29.1172 20.8254L29.672 20.7142L29.7694 21.2003L28.4339 21.4679L28.5176 21.8853L30.2458 21.5389L30.3442 22.0299L26.269 22.8465L26.1706 22.3555L27.8891 22.0112L27.8055 21.5939L26.4749 21.8605L26.3775 21.3744L26.9274 21.2642L26.7729 20.4933L26.1935 20.6094L26.0922 20.1037L29.4457 19.4317ZM30.0942 23.178L30.1946 23.6789L27.0719 24.3046L26.818 23.0378L27.4465 22.9119L27.6 23.6778L30.0942 23.178ZM27.5558 21.1383L28.4887 20.9513L28.3343 20.1805L27.4014 20.3674L27.5558 21.1383ZM33.5915 18.4325L33.7952 19.4488L34.3991 19.3278L34.5024 19.8433L33.8985 19.9644L34.114 21.0396L33.4855 21.1656L32.9631 18.5584L33.5915 18.4325ZM30.8549 19.2515L30.969 19.8211L31.8822 19.6381L31.7681 19.0685L32.3966 18.9426L32.8226 21.0686L30.6573 21.5025L30.2313 19.3765L30.8549 19.2515ZM31.1825 20.8865L32.0957 20.7035L31.9796 20.1241L31.0664 20.3071L31.1825 20.8865ZM34.1789 21.236L34.2782 21.7319L31.9558 22.1973L32.0788 22.811L34.4847 22.3289L34.5831 22.8199L31.5536 23.427L31.2329 21.8263L34.1789 21.236ZM38.1479 17.5194L39.0432 21.9875L38.4099 22.1144L37.5146 17.6464L38.1479 17.5194ZM36.901 18.2545C37.1725 19.6096 36.9216 20.8294 35.4774 21.9053L35.0481 21.4704C36.0927 20.6942 36.4592 19.8853 36.3611 18.8734L34.839 19.1784L34.7406 18.6874L36.901 18.2545Z" fill="white"/>
<path d="M19.9603 31.4338C20.0262 31.7755 20.2866 32.1319 20.6888 32.2275L20.5637 32.5079C20.2916 32.4437 20.0679 32.251 19.9158 32.0019C19.8744 32.3179 19.7417 32.6049 19.5071 32.7784L19.2757 32.5668C19.6139 32.3177 19.7174 31.8655 19.6461 31.4967L19.6185 31.3593L19.1447 31.4542L19.0935 31.1989L20.3308 30.951L20.382 31.2063L19.9327 31.2963L19.9603 31.4338ZM20.7761 30.637L20.9468 31.4889L21.2757 31.423L21.3284 31.6857L20.9994 31.7516L21.2237 32.871L20.9095 32.934L20.4618 30.7L20.7761 30.637ZM23.0695 30.18L23.3961 31.8101L23.0844 31.8726L22.924 31.0723L22.5582 31.1456L22.5075 30.8927L22.8733 30.8194L22.7577 30.2425L23.0695 30.18ZM23.5126 32.1111L23.5628 32.3615L22.026 32.6694L21.8848 31.9648L22.199 31.9019L22.2901 32.356L23.5126 32.1111ZM22.1186 30.8251C22.1703 31.0829 22.383 31.3288 22.7621 31.3728L22.6571 31.6518C22.3931 31.6217 22.191 31.4924 22.052 31.3083C21.9991 31.5538 21.857 31.7687 21.6108 31.91L21.4001 31.6866C21.7452 31.4974 21.8536 31.1718 21.799 30.8866L21.7921 30.8522L21.3428 30.9422L21.2927 30.6918L22.5054 30.4488L22.5556 30.6992L22.1112 30.7883L22.1186 30.8251ZM25.2416 29.7422L25.6893 31.9762L25.3775 32.0387L25.1532 30.9192L24.7089 31.0083L24.6577 30.753L25.102 30.6639L24.9299 29.8047L25.2416 29.7422ZM24.5445 30.1245C24.6798 30.7996 24.5715 31.3933 23.8686 31.9376L23.6573 31.7246C24.1661 31.3328 24.3283 30.9313 24.2795 30.4329L23.5381 30.5815L23.4889 30.336L24.5445 30.1245ZM27.9941 29.1932L28.3208 30.8233L28.009 30.8858L27.8486 30.0855L27.4828 30.1588L27.4322 29.9059L27.798 29.8326L27.6824 29.2557L27.9941 29.1932ZM28.4373 31.1243L28.4874 31.3747L26.9506 31.6826L26.8095 30.978L27.1237 30.9151L27.2147 31.3692L28.4373 31.1243ZM27.0433 29.8383C27.0949 30.096 27.3076 30.342 27.6867 30.386L27.5817 30.665C27.3178 30.6349 27.1157 30.5056 26.9767 30.3215C26.9237 30.567 26.7816 30.7819 26.5354 30.9231L26.3247 30.6998C26.6698 30.5106 26.7782 30.185 26.7236 29.8998L26.7167 29.8654L26.2675 29.9554L26.2173 29.705L27.43 29.462L27.4802 29.7124L27.0359 29.8015L27.0433 29.8383ZM30.533 29.7825L30.5831 30.0329L28.5455 30.4412L28.4954 30.1908L28.9544 30.0988L28.9008 29.8312C28.723 29.7915 28.6088 29.6995 28.5801 29.5559C28.526 29.2858 28.8102 29.0603 29.3085 28.9605C29.802 28.8616 30.1511 28.9602 30.2077 29.2297C30.2355 29.3748 30.1624 29.5069 30.0109 29.6113L30.0641 29.8764L30.533 29.7825ZM29.5855 30.3554C30.0691 30.2585 30.3898 30.3423 30.4439 30.5996C30.4941 30.8628 30.2305 31.0637 29.7468 31.1606C29.2559 31.259 28.9352 31.1751 28.8825 30.9125C28.8309 30.6547 29.0945 30.4538 29.5855 30.3554ZM29.6327 30.5911C29.3234 30.653 29.1771 30.7385 29.2017 30.8485C29.2224 30.9644 29.3908 30.9894 29.7001 30.9274C30.0021 30.8669 30.1503 30.7784 30.1297 30.6626C30.1051 30.5526 29.9347 30.5305 29.6327 30.5911ZM29.3567 29.2011C29.0401 29.2645 28.879 29.3657 28.9066 29.4904C28.9287 29.6137 29.1153 29.6401 29.432 29.5767C29.7438 29.5142 29.9082 29.4174 29.8836 29.2946C29.8586 29.1694 29.6685 29.1386 29.3567 29.2011ZM29.2711 30.0353L29.7523 29.9389L29.7149 29.7523C29.643 29.7757 29.5639 29.7954 29.4792 29.8123C29.3921 29.8298 29.3103 29.8424 29.2332 29.8463L29.2711 30.0353ZM32.8722 28.3434L32.9125 28.5447C32.9565 28.7772 33.0082 29.035 33.0071 29.4118L33.3091 29.3513L33.3597 29.6042L32.4981 29.7769L32.6579 30.5747L32.3437 30.6377L32.1838 29.8398L31.3221 30.0125L31.2715 29.7596L32.7002 29.4733C32.7034 29.3489 32.6999 29.2359 32.6908 29.1331L31.4221 29.4537L31.3316 29.1935L32.6647 28.888C32.6504 28.8041 32.6361 28.7265 32.6224 28.6514L31.3482 28.9067L31.2986 28.6587L32.8722 28.3434ZM35.0801 27.855L35.1308 28.1079L34.8387 28.1664L34.9159 28.5518L35.1933 28.4963L35.242 28.7393L34.5743 28.8731L34.6161 29.0818L35.4802 28.9086L35.5294 29.1541L33.4918 29.5624L33.4426 29.3169L34.3019 29.1447L34.26 28.9361L33.5947 29.0694L33.546 28.8263L33.821 28.7712L33.7438 28.3858L33.4541 28.4439L33.4034 28.191L35.0801 27.855ZM35.4044 29.7282L35.4546 29.9786L33.8932 30.2914L33.7663 29.6581L34.0806 29.5951L34.1573 29.9781L35.4044 29.7282ZM34.1352 28.7083L34.6017 28.6148L34.5244 28.2294L34.058 28.3228L34.1352 28.7083Z" fill="white"/>
<rect x="37.4551" y="2.35486" width="9.82813" height="9.82813" rx="4.91404" transform="rotate(-11.331 37.4551 2.35486)" fill="#26C86E"/>
<path d="M40.4348 4.60176L41.4772 5.75136L41.5066 5.74546L42.0354 4.28102L42.7621 4.13541L42.0233 6.1322L43.494 7.68625L42.7526 7.83481L41.6975 6.69798L41.668 6.70388L41.1324 8.15948L40.3959 8.30706L41.1641 6.30437L39.6983 4.74934L40.4348 4.60176ZM45.2027 7.39493C44.4417 7.54743 43.8189 7.24322 43.6842 6.64716L44.3274 6.51828C44.4041 6.79912 44.7262 6.92863 45.0945 6.85484C45.4873 6.77613 45.7238 6.50402 45.6609 6.18978C45.5969 5.87064 45.2757 5.69497 44.8142 5.78745L44.495 5.8514L44.3967 5.36041L44.7158 5.29646C45.0939 5.2207 45.3167 4.95645 45.2498 4.64811C45.1947 4.34762 44.9285 4.19157 44.5799 4.26143C44.246 4.32833 43.9937 4.57295 44.0439 4.87442L43.4302 4.99741C43.3249 4.39545 43.7833 3.8797 44.4805 3.73999C45.2023 3.59537 45.7573 3.94379 45.8616 4.48977C45.9462 4.88649 45.7391 5.22931 45.3669 5.38559L45.3728 5.41505C45.8874 5.38343 46.2362 5.64551 46.3208 6.0933C46.4457 6.69132 45.9735 7.24047 45.2027 7.39493Z" fill="white"/>
<path d="M26.1271 30.7893C27.1471 30.1484 28.4463 30.1573 29.4575 30.812L53.8033 46.5761H1L26.1271 30.7893Z" fill="#28C86F" fill-opacity="0.3"/>
<path d="M26.1726 30.8616C27.1644 30.2385 28.4277 30.2471 29.411 30.8838L53.5141 46.4906H1.29667L26.1726 30.8616Z" stroke="#03BD54" stroke-opacity="0.8" stroke-width="0.170923"/>
<path d="M1 46.5761L1.16191 17.7393L23.4338 32.4748L1 46.5761Z" fill="#28C86F" fill-opacity="0.3" stroke="#03BD54" stroke-opacity="0.8" stroke-width="0.170923" stroke-linecap="square" stroke-linejoin="round"/>
<path d="M53.8027 46.576V17.3522L31.3385 32.0475L53.8027 46.576Z" fill="#28C86F" fill-opacity="0.3" stroke="#03BD54" stroke-opacity="0.8" stroke-width="0.170923" stroke-linecap="square" stroke-linejoin="round"/>
</svg>
