<svg width="30" height="32" viewBox="0 0 30 32" fill="none" xmlns="http://www.w3.org/2000/svg">
<path d="M29.2136 15.146V26.382C29.2136 27.872 28.6218 29.301 27.5682 30.3546C26.5146 31.4082 25.0856 32.0001 23.5956 32.0001H15.7304C15.4324 32.0001 15.1466 31.8817 14.9359 31.671C14.7252 31.4602 14.6068 31.1745 14.6068 30.8765C14.6068 30.5785 14.7252 30.2927 14.9359 30.0819C15.1466 29.8712 15.4324 29.7529 15.7304 29.7529H23.5956C24.4896 29.7529 25.347 29.3977 25.9792 28.7656C26.6113 28.1334 26.9664 27.276 26.9664 26.382H23.5956C22.7016 26.382 21.8443 26.0269 21.2121 25.3948C20.58 24.7626 20.2248 23.9052 20.2248 23.0112V17.3932C20.2248 16.4992 20.58 15.6419 21.2121 15.0097C21.8443 14.3776 22.7016 14.0224 23.5956 14.0224H26.9173C26.7047 11.6867 25.8318 9.4596 24.4007 7.60139C22.9696 5.74318 21.0393 4.33053 18.8352 3.52845C16.6312 2.72638 14.2445 2.56798 11.9538 3.07176C9.66309 3.57555 7.56304 4.72072 5.89891 6.37351C3.82959 8.41553 2.55328 11.1265 2.29777 14.0224H5.61801C6.512 14.0224 7.36938 14.3776 8.00153 15.0097C8.63368 15.6419 8.98881 16.4992 8.98881 17.3932V23.0112C8.98881 23.9052 8.63368 24.7626 8.00153 25.3948C7.36938 26.0269 6.512 26.382 5.61801 26.382H3.37081C2.47681 26.382 1.61943 26.0269 0.987286 25.3948C0.355137 24.7626 0 23.9052 0 23.0112V15.146C0.00315021 12.2526 0.864644 9.42517 2.47544 7.02159C4.08624 4.618 6.37391 2.74634 9.04891 1.6435C11.7239 0.540656 14.666 0.256221 17.5027 0.826193C20.3394 1.39617 22.9433 2.79492 24.9847 4.84541C26.3325 6.19978 27.3998 7.80679 28.1255 9.57436C28.8512 11.3419 29.221 13.2353 29.2136 15.146Z" fill="#28C86F"/>
</svg>
