<svg width="31" height="30" viewBox="0 0 31 30" fill="none" xmlns="http://www.w3.org/2000/svg">
<path d="M15.5 0C12.5333 0 9.63319 0.879735 7.16645 2.52796C4.69971 4.17618 2.77713 6.51886 1.64181 9.25975C0.506499 12.0006 0.209449 15.0166 0.788227 17.9264C1.36701 20.8361 2.79562 23.5088 4.8934 25.6066C6.99119 27.7044 9.66393 29.133 12.5736 29.7118C15.4834 30.2906 18.4994 29.9935 21.2403 28.8582C23.9811 27.7229 26.3238 25.8003 27.972 23.3335C29.6203 20.8668 30.5 17.9667 30.5 15C30.4958 11.023 28.9141 7.21017 26.102 4.39804C23.2898 1.5859 19.477 0.00419974 15.5 0ZM15.5 24.2308C15.1577 24.2308 14.8231 24.1293 14.5384 23.9391C14.2538 23.7489 14.032 23.4786 13.901 23.1623C13.77 22.8461 13.7357 22.4981 13.8025 22.1623C13.8693 21.8266 14.0341 21.5182 14.2762 21.2762C14.5182 21.0341 14.8266 20.8693 15.1623 20.8025C15.4981 20.7357 15.8461 20.77 16.1623 20.901C16.4786 21.032 16.7489 21.2538 16.9391 21.5384C17.1293 21.8231 17.2308 22.1577 17.2308 22.5C17.2308 22.959 17.0484 23.3993 16.7238 23.7238C16.3993 24.0484 15.959 24.2308 15.5 24.2308ZM16.6538 17.2038V17.3077C16.6538 17.6137 16.5323 17.9072 16.3159 18.1236C16.0995 18.34 15.806 18.4615 15.5 18.4615C15.194 18.4615 14.9005 18.34 14.6841 18.1236C14.4677 17.9072 14.3462 17.6137 14.3462 17.3077V16.1538C14.3462 15.8478 14.4677 15.5543 14.6841 15.3379C14.9005 15.1216 15.194 15 15.5 15C17.4082 15 18.9615 13.7019 18.9615 12.1154C18.9615 10.5288 17.4082 9.23077 15.5 9.23077C13.5918 9.23077 12.0385 10.5288 12.0385 12.1154V12.6923C12.0385 12.9983 11.9169 13.2918 11.7005 13.5082C11.4841 13.7246 11.1906 13.8462 10.8846 13.8462C10.5786 13.8462 10.2851 13.7246 10.0687 13.5082C9.85234 13.2918 9.73077 12.9983 9.73077 12.6923V12.1154C9.73077 9.2524 12.3183 6.92308 15.5 6.92308C18.6817 6.92308 21.2692 9.2524 21.2692 12.1154C21.2692 14.6221 19.2846 16.7207 16.6538 17.2038Z" fill="#28C86F"/>
</svg>
