<svg width="97" height="97" viewBox="0 0 97 97" fill="none" xmlns="http://www.w3.org/2000/svg">
<path d="M65.2744 19.0176C61.8229 19.0176 59.0255 21.815 59.0255 25.2665L57.3689 35.1032L50.1712 27.9054L36.6195 14.3538C36.6195 14.3538 36.6173 14.3515 36.6151 14.3493C34.2218 11.9538 30.3818 11.9136 28.0398 14.2555C25.6979 16.5975 25.7403 20.4375 28.1336 22.8308L41.6897 36.3869L41.6718 36.407L24.3918 19.127C22.0007 16.7337 18.163 16.6935 15.8232 19.0332C13.4835 21.3729 13.5259 25.2085 15.917 27.6018L33.197 44.8818L33.1702 44.9086L18.4152 30.1536C16.0398 27.7781 12.1909 27.7737 9.81767 30.1469C7.44669 32.5179 7.44892 36.369 9.82436 38.7445L14.3341 43.2542C12.2288 41.8812 9.41804 42.0844 7.61413 43.8883C5.53339 45.969 5.57581 49.3848 7.71013 51.5169L27.178 70.9848C37.3228 81.1296 53.7723 81.1296 63.917 70.9848C68.9894 65.9125 71.5256 59.2639 71.5256 52.6154V25.2665C71.5256 21.815 68.7259 19.0176 65.2744 19.0176Z" fill="#F78700"/>
<path d="M73.8984 21.1292C70.6634 21.1292 68.0424 23.7525 68.0424 26.9875L66.5198 36.0248L58.4022 27.9073L44.8126 14.3177L44.8104 14.3132C42.7609 12.266 39.4768 12.228 37.472 14.2328C35.4671 16.2377 35.5051 19.5218 37.5523 21.5713L51.1464 35.1653L49.818 36.4915L32.4867 19.1601C30.4282 17.1017 27.1263 17.066 25.1125 19.0797C23.0988 21.0935 23.1345 24.3955 25.1929 26.4539L42.5242 43.7852L41.2026 45.1069L26.3628 30.2671C24.3512 28.2555 21.0939 28.2533 19.0869 30.2604C17.0798 32.2675 17.082 35.5248 19.0935 37.5363L33.9334 52.3761L32.5648 53.7469L23.6011 44.7832C21.5628 42.7426 18.2988 42.7024 16.3118 44.6894C14.3248 46.6764 14.365 49.9404 16.4033 51.9787L25.3693 60.9447L28.7471 64.3225L35.0028 70.5782L35.4113 70.9867C45.5561 81.1315 62.0056 81.1315 72.1503 70.9867C77.2227 65.9143 79.7589 59.2658 79.7589 52.6172V26.9875C79.7589 23.7525 77.1356 21.1292 73.9029 21.1292H73.8984Z" fill="#FFC84D"/>
<path d="M58.2777 14.2129C60.1321 14.2129 61.6355 12.7095 61.6355 10.8551C61.6355 9.00064 60.1321 7.49731 58.2777 7.49731C56.4232 7.49731 54.9199 9.00064 54.9199 10.8551C54.9199 12.7095 56.4232 14.2129 58.2777 14.2129Z" fill="#EDCCF8"/>
<path d="M24.5873 81.8636C26.4417 81.8636 27.945 80.3603 27.945 78.5058C27.945 76.6514 26.4417 75.1481 24.5873 75.1481C22.7328 75.1481 21.2295 76.6514 21.2295 78.5058C21.2295 80.3603 22.7328 81.8636 24.5873 81.8636Z" fill="#F66570"/>
<path d="M75.5666 4.38119L70.8125 6.77913C69.8239 7.27778 69.4267 8.48343 69.9253 9.47203L72.3233 14.2262C72.8219 15.2148 74.0276 15.612 75.0162 15.1133L79.7703 12.7154C80.7589 12.2167 81.1561 11.0111 80.6575 10.0225L78.2595 5.26834C77.7609 4.27974 76.5552 3.88254 75.5666 4.38119Z" fill="#B44BD7"/>
<path d="M15.1725 72.5911L13.8266 68.3571C13.5464 67.4758 12.6049 66.9885 11.7236 67.2686L7.48957 68.6145C6.60827 68.8946 6.12093 69.8361 6.40107 70.7175L7.74695 74.9515C8.02709 75.8328 8.96863 76.3201 9.84993 76.04L14.084 74.6941C14.9653 74.414 15.4526 73.4724 15.1725 72.5911Z" fill="#6376FF"/>
<path d="M84.4144 23.1784C86.2688 23.1784 87.7722 21.6751 87.7722 19.8207C87.7722 17.9662 86.2688 16.4629 84.4144 16.4629C82.56 16.4629 81.0566 17.9662 81.0566 19.8207C81.0566 21.6751 82.56 23.1784 84.4144 23.1784Z" fill="#7896FF"/>
</svg>
