<svg width="85" height="84" viewBox="0 0 85 84" fill="none" xmlns="http://www.w3.org/2000/svg">
<circle cx="44.5" cy="43.5" r="40.5" fill="#F4D533"/>
<circle cx="40.5" cy="40.5" r="40.5" fill="#FDE047"/>
<path d="M58.579 25.5955C55.4792 21.8047 51.2381 19.1164 46.487 17.9308C41.7359 16.7451 36.729 17.1255 32.2116 19.0154C27.6941 20.9052 23.9078 24.2034 21.4163 28.419C18.9249 32.6346 17.8614 37.5421 18.3843 42.4109C18.9072 47.2796 20.9885 51.8494 24.3184 55.4397C27.6483 59.0301 32.0486 61.449 36.8643 62.3365C41.68 63.224 46.6536 62.5325 51.0445 60.3649C55.4355 58.1974 59.009 54.6698 61.2331 50.3072L51.8038 45.5C50.6154 47.8311 48.7059 49.7161 46.3596 50.8743C44.0133 52.0325 41.3557 52.402 38.7825 51.9278C36.2092 51.4536 33.8579 50.161 32.0786 48.2425C30.2993 46.3241 29.1872 43.8822 28.9078 41.2806C28.6283 38.679 29.1966 36.0567 30.5279 33.8041C31.8592 31.5516 33.8824 29.7892 36.2963 28.7793C38.7102 27.7695 41.3856 27.5662 43.9243 28.1998C46.463 28.8333 48.7293 30.2698 50.3856 32.2954L58.579 25.5955Z" fill="white"/>
</svg>
