<svg width="97" height="96" viewBox="0 0 97 96" fill="none" xmlns="http://www.w3.org/2000/svg">
<g clip-path="url(#clip0_189_2876)">
<path d="M88.4335 47.2392C85.5367 44.3424 80.8399 44.3424 77.9407 47.2392L69.0703 53.5512V42.2904V18.7176V18.7104C69.0703 15.1392 66.2383 12.2448 62.7463 12.2448C59.2543 12.2448 56.4199 15.1392 56.4199 18.7104V42.288H53.9959V12.4656C53.9959 8.8944 51.1639 6 47.6695 6C44.1751 6 41.3431 8.8944 41.3431 12.4656V42.2904H38.9191V16.6248C38.9191 13.1256 36.0871 10.2888 32.5951 10.2888C29.1031 10.2888 26.2687 13.1256 26.2687 16.6248V42.2904H23.8447V26.4624C23.8447 22.8792 21.0127 19.9752 17.5207 19.9752C14.0287 19.9752 11.1943 22.8792 11.1943 26.4624V59.1528H11.2423C11.7511 76.2696 25.7527 90 42.9919 90C51.7735 90 59.7223 86.4408 65.4751 80.6856L88.4311 57.7296C91.3279 54.8328 91.3279 50.136 88.4311 47.2368L88.4335 47.2392Z" fill="#FFC84D"/>
<path d="M64.7391 56.472H58.2543C52.9527 56.472 48.6543 60.7704 48.6543 66.072V68.7456C52.8711 63.4104 58.3815 59.1456 64.7391 56.472Z" fill="#F78700"/>
</g>
<defs>
<clipPath id="clip0_189_2876">
<rect width="96" height="96" fill="white" transform="translate(0.5)"/>
</clipPath>
</defs>
</svg>
