<svg width="70" height="19" viewBox="0 0 70 19" fill="none" xmlns="http://www.w3.org/2000/svg">
<g id="_&#235;&#160;&#136;&#236;&#157;&#180;&#236;&#150;&#180;_1" clip-path="url(#clip0_133_38938)">
<path id="Vector" d="M8.53774 4.16293H17.0755V0.962158H8.53774C3.82255 0.962158 0 4.78471 0 9.49989C0 14.2151 3.82255 18.0376 8.53774 18.0376C12.6618 18.0376 16.1051 15.1124 16.9012 11.2216C16.9106 11.1815 16.9177 11.1415 16.9247 11.1015C17.0237 10.5857 17.0755 10.044 17.0755 9.49989V7.89833H8.53774V11.0991H13.6298C12.9491 13.2636 10.9283 14.8345 8.53774 14.8345C5.59133 14.8345 3.20077 12.4463 3.20077 9.49754C3.20077 6.54878 5.58898 4.16057 8.53774 4.16057V4.16293Z" fill="#26C86E"/>
<path id="Vector_2" d="M27.483 4.18177L32.2712 4.16057V0.962158L27.483 0.983355C22.7749 0.983355 18.957 4.80119 18.957 9.50931C18.957 14.2174 22.7749 18.0353 27.483 18.0353H32.2712V14.8369H27.483C24.5413 14.8369 22.1554 12.451 22.1554 9.50696C22.1554 6.56291 24.5413 4.17706 27.483 4.17706V4.18177Z" fill="#26C86E"/>
<path id="Vector_3" d="M42.6745 0.962158C37.9593 0.962158 34.1367 4.78471 34.1367 9.49989C34.1367 14.2151 37.9593 18.0376 42.6745 18.0376C47.3896 18.0376 51.2122 14.2174 51.2122 9.49989C51.2122 4.78235 47.3896 0.962158 42.6745 0.962158ZM42.6745 14.8345C39.7281 14.8345 37.3375 12.4463 37.3375 9.49754C37.3375 6.54878 39.7257 4.16057 42.6745 4.16057C45.6232 4.16057 48.0091 6.54878 48.0091 9.49754C48.0091 12.4463 45.6209 14.8345 42.6745 14.8345Z" fill="#26C86E"/>
<path id="Vector_4" d="M61.4625 0.962158C56.7474 0.962158 52.9248 4.78471 52.9248 9.49989C52.9248 14.2151 56.7474 18.0376 61.4625 18.0376C66.1777 18.0376 70.0003 14.2174 70.0003 9.49989C70.0003 4.78235 66.1777 0.962158 61.4625 0.962158ZM61.4625 14.8345C58.5161 14.8345 56.1279 12.4463 56.1279 9.49754C56.1279 6.54878 58.5161 4.16057 61.4625 4.16057C64.4089 4.16057 66.7971 6.54878 66.7971 9.49754C66.7971 12.4463 64.4089 14.8345 61.4625 14.8345Z" fill="#26C86E"/>
</g>
<defs>
<clipPath id="clip0_133_38938">
<rect width="70" height="17.0755" fill="white" transform="translate(0 0.962158)"/>
</clipPath>
</defs>
</svg>
