<svg width="38" height="46" viewBox="0 0 38 46" fill="none" xmlns="http://www.w3.org/2000/svg">
<mask id="path-1-inside-1_158_39949" fill="white">
<path d="M20.4023 39.5711C21.0282 38.4871 22.1326 37.785 23.3512 37.4994C31.7476 35.5322 38 27.9963 38 19C38 8.50659 29.4934 0 19 0C8.50659 0 0 8.50659 0 19C0 27.9963 6.25238 35.5322 14.6488 37.4994C15.8674 37.785 16.9718 38.4871 17.5977 39.5711L19 42L20.4023 39.5711Z"/>
</mask>
<path d="M20.4023 39.5711C21.0282 38.4871 22.1326 37.785 23.3512 37.4994C31.7476 35.5322 38 27.9963 38 19C38 8.50659 29.4934 0 19 0C8.50659 0 0 8.50659 0 19C0 27.9963 6.25238 35.5322 14.6488 37.4994C15.8674 37.785 16.9718 38.4871 17.5977 39.5711L19 42L20.4023 39.5711Z" fill="#FF3A36"/>
<path d="M19 42L18.134 42.5L19 44L19.866 42.5L19 42ZM17.5977 39.5711L16.7316 40.0711L17.5977 39.5711ZM23.3512 37.4994L23.5793 38.4731L23.3512 37.4994ZM20.4023 39.5711L19.5363 39.0711L20.4023 39.5711ZM37 19C37 27.5215 31.0775 34.6621 23.1231 36.5258L23.5793 38.4731C32.4177 36.4023 39 28.471 39 19H37ZM19 1C28.9411 1 37 9.05888 37 19H39C39 7.95431 30.0457 -1 19 -1V1ZM1 19C1 9.05888 9.05888 1 19 1V-1C7.95431 -1 -1 7.95431 -1 19H1ZM14.8769 36.5258C6.92248 34.6621 1 27.5215 1 19H-1C-1 28.471 5.58228 36.4023 14.4207 38.4731L14.8769 36.5258ZM19.866 41.5L18.4637 39.0711L16.7316 40.0711L18.134 42.5L19.866 41.5ZM19.5363 39.0711L18.134 41.5L19.866 42.5L21.2684 40.0711L19.5363 39.0711ZM14.4207 38.4731C15.4273 38.7089 16.2707 39.2727 16.7316 40.0711L18.4637 39.0711C17.673 37.7016 16.3075 36.861 14.8769 36.5258L14.4207 38.4731ZM23.1231 36.5258C21.6925 36.861 20.327 37.7016 19.5363 39.0711L21.2684 40.0711C21.7293 39.2727 22.5727 38.7089 23.5793 38.4731L23.1231 36.5258Z" fill="#B91C1C" mask="url(#path-1-inside-1_158_39949)"/>
<path fill-rule="evenodd" clip-rule="evenodd" d="M16.4451 8.65715C16.4831 8.56224 16.575 8.5 16.6772 8.5H18.5002C18.9144 8.5 19.2502 8.16421 19.2502 7.75C19.2502 7.33579 18.9144 7 18.5002 7H16.6772C15.9616 7 15.3182 7.43567 15.0524 8.10007L11.3102 17.4557C11.2895 17.5041 11.2737 17.5551 11.2636 17.6081C11.2251 17.8068 11.2698 18.0088 11.3791 18.1705C11.4882 18.3314 11.6582 18.4476 11.856 18.4862C11.9093 18.4966 11.9627 18.5011 12.0156 18.5C13.6006 18.5074 14.9176 19.6494 15.196 21.1556C15.0729 21.3217 15.0002 21.5274 15.0002 21.75C15.0002 22.3023 15.4479 22.75 16.0002 22.75H22.0002C22.5525 22.75 23.0002 22.3023 23.0002 21.75C23.0002 21.5274 22.9275 21.3217 22.8044 21.1556C23.0837 19.6445 24.4083 18.5 26.0002 18.5C26.4144 18.5 26.7502 18.1642 26.7502 17.75C26.7502 17.3358 26.4144 17 26.0002 17C23.7199 17 21.8149 18.6068 21.3556 20.75H16.6448C16.2589 18.9494 14.8525 17.5273 13.0605 17.1188L16.4451 8.65715Z" fill="white"/>
<circle cx="11.5" cy="22.25" r="2.5" stroke="white" stroke-width="1.5"/>
<circle cx="26.5" cy="22.25" r="2.5" stroke="white" stroke-width="1.5"/>
<path d="M9 29.25C9 28.4216 9.67157 27.75 10.5 27.75H13V30.75H10.5C9.67157 30.75 9 30.0784 9 29.25Z" fill="#FDE047"/>
<rect x="14" y="27.75" width="4" height="3" fill="#FDE047"/>
<rect x="19" y="27.75" width="4" height="3" fill="#FDE047"/>
<path d="M24 27.75H26.5C27.3284 27.75 28 28.4216 28 29.25C28 30.0784 27.3284 30.75 26.5 30.75H24V27.75Z" fill="white"/>
<path d="M20.5 44.5C20.5 45.3284 19.8284 46 19 46C18.1716 46 17.5 45.3284 17.5 44.5C17.5 43.6716 18.1716 43 19 43C19.8284 43 20.5 43.6716 20.5 44.5Z" fill="#B91C1C"/>
</svg>
