<svg width="197" height="152" viewBox="0 0 197 152" fill="none" xmlns="http://www.w3.org/2000/svg">
<rect y="48.9485" width="175.835" height="102.519" rx="11.1839" fill="#C0DF88"/>
<path d="M0 52.0552C0 45.8785 5.00718 40.8713 11.1839 40.8713H164.651C170.828 40.8713 175.835 45.8785 175.835 52.0552V60.7538H0V52.0552Z" fill="#EAEDF0"/>
<circle cx="88.2281" cy="103.625" r="35.4156" fill="#EAEDF0"/>
<circle cx="88.2283" cy="103.625" r="25.4743" fill="#3B4246"/>
<circle cx="88.2277" cy="103.625" r="18.6398" fill="#22292D"/>
<circle cx="20.1931" cy="71.0057" r="7.14524" fill="white"/>
<path d="M111.362 32.0522C111.362 29.97 113.05 28.282 115.133 28.282H140.582C142.664 28.282 144.352 29.97 144.352 32.0522V41.0065H111.362V32.0522Z" fill="#3B4246"/>
<path fill-rule="evenodd" clip-rule="evenodd" d="M43.4924 40.8712C43.4924 40.8712 43.4924 40.8712 43.4924 40.8712C43.4924 36.4102 39.8761 32.7939 35.4151 32.7939C30.9542 32.7939 27.3379 36.4102 27.3379 40.8712C27.3379 40.8712 27.3379 40.8712 27.3379 40.8712H43.4924Z" fill="#F57B7B"/>
<rect x="137.313" y="46.4634" width="17.3971" height="9.94121" rx="2.4853" fill="#90979B"/>
<rect x="138.556" y="47.7058" width="14.9118" height="7.45591" rx="2.4853" fill="#22292D"/>
<path d="M145.692 4V17.397" stroke="#FDE047" stroke-width="6.69848" stroke-linecap="round"/>
<path d="M145.692 98.4987V85.1017" stroke="#FDE047" stroke-width="6.69848" stroke-linecap="round"/>
<path d="M193 50.8894L179.603 50.8894" stroke="#FDE047" stroke-width="6.69848" stroke-linecap="round"/>
<path d="M98.8027 50.8894L112.2 50.8894" stroke="#FDE047" stroke-width="6.69848" stroke-linecap="round"/>
<path d="M179.066 18.2344L169.593 27.7075" stroke="#FDE047" stroke-width="6.69848" stroke-linecap="round"/>
<path d="M179.066 84.2644L169.593 74.7913" stroke="#FDE047" stroke-width="6.69848" stroke-linecap="round"/>
<path d="M112.736 18.2344L122.209 27.7075" stroke="#FDE047" stroke-width="6.69848" stroke-linecap="round"/>
<path d="M112.736 84.2644L122.209 74.7913" stroke="#FDE047" stroke-width="6.69848" stroke-linecap="round"/>
</svg>
